<svg xmlns="http://www.w3.org/2000/svg" width="293" height="171" fill="none" viewBox="0 0 293 171"><g filter="url(#filter0_d_288_295)"><path fill="url(#paint0_linear_288_295)" d="M42 46H104.093V108.093L73.0467 125L42 108.093V46Z" shape-rendering="crispEdges"/></g><path fill="#B4B4B4" d="M72.3875 105.583V91.2104H74.3288V105.583H72.3875ZM66.1663 99.3616V97.4317H80.55V99.3616H66.1663Z"/><path fill="#B4B4B4" d="M86.187 68.747V58.9104H92.8152V60.6251H88.2667V62.9689H92.4742V64.6836H88.2667V67.0323H92.8344V68.747H86.187Z"/><path fill="#B4B4B4" d="M77.1758 68.747V58.9104H81.0566C81.7995 58.9104 82.4335 59.0433 82.9586 59.3091C83.4869 59.5716 83.8888 59.9446 84.1642 60.4282C84.4427 60.9085 84.582 61.4736 84.582 62.1236C84.582 62.7768 84.4411 63.3388 84.1594 63.8095C83.8776 64.277 83.4693 64.6356 82.9346 64.8854C82.4031 65.1351 81.7595 65.26 81.0038 65.26H78.4054V63.5885H80.6676C81.0646 63.5885 81.3944 63.5341 81.657 63.4252C81.9196 63.3164 82.1149 63.1531 82.243 62.9353C82.3742 62.7176 82.4399 62.447 82.4399 62.1236C82.4399 61.797 82.3742 61.5216 82.243 61.2975C82.1149 61.0734 81.918 60.9037 81.6522 60.7884C81.3896 60.6699 81.0582 60.6107 80.658 60.6107H79.2555V68.747H77.1758ZM82.4879 64.2706L84.9327 68.747H82.6368L80.2449 64.2706H82.4879Z"/><path fill="#B4B4B4" d="M75.4998 63.8289C75.4998 64.9016 75.2965 65.8141 74.8898 66.5666C74.4863 67.3191 73.9356 67.8938 73.2376 68.2909C72.5427 68.6847 71.7614 68.8817 70.8937 68.8817C70.0195 68.8817 69.235 68.6831 68.5402 68.2861C67.8454 67.889 67.2962 67.3143 66.8928 66.5618C66.4893 65.8093 66.2876 64.8984 66.2876 63.8289C66.2876 62.7562 66.4893 61.8436 66.8928 61.0912C67.2962 60.3387 67.8454 59.7655 68.5402 59.3717C69.235 58.9746 70.0195 58.7761 70.8937 58.7761C71.7614 58.7761 72.5427 58.9746 73.2376 59.3717C73.9356 59.7655 74.4863 60.3387 74.8898 61.0912C75.2965 61.8436 75.4998 62.7562 75.4998 63.8289ZM73.3913 63.8289C73.3913 63.1341 73.2872 62.5481 73.0791 62.071C72.8741 61.5939 72.5844 61.2321 72.2097 60.9855C71.8351 60.739 71.3964 60.6157 70.8937 60.6157C70.391 60.6157 69.9523 60.739 69.5777 60.9855C69.203 61.2321 68.9116 61.5939 68.7035 62.071C68.4986 62.5481 68.3961 63.1341 68.3961 63.8289C68.3961 64.5237 68.4986 65.1097 68.7035 65.5868C68.9116 66.0639 69.203 66.4257 69.5777 66.6723C69.9523 66.9188 70.391 67.0421 70.8937 67.0421C71.3964 67.0421 71.8351 66.9188 72.2097 66.6723C72.5844 66.4257 72.8741 66.0639 73.0791 65.5868C73.2872 65.1097 73.3913 64.5237 73.3913 63.8289Z"/><path fill="#B4B4B4" d="M53.9492 58.9104H56.514L59.2229 65.5193H59.3382L62.0471 58.9104H64.6119V68.747H62.5946V62.3446H62.513L59.9674 68.6989H58.5937L56.0481 62.3205H55.9665V68.747H53.9492V58.9104Z"/><g filter="url(#filter1_d_288_295)"><path fill="url(#paint1_linear_288_295)" d="M188.093 46H250.187V108.093L219.14 125L188.093 108.093V46Z" shape-rendering="crispEdges"/></g><path fill="#B4B4B4" d="M218.481 105.583V91.2104H220.422V105.583H218.481ZM212.26 99.3616V97.4317H226.643V99.3616H212.26Z"/><path fill="#B4B4B4" d="M232.28 68.747V58.9104H238.908V60.6251H234.36V62.9689H238.567V64.6836H234.36V67.0323H238.928V68.747H232.28Z"/><path fill="#B4B4B4" d="M223.269 68.747V58.9104H227.15C227.893 58.9104 228.527 59.0433 229.052 59.3091C229.58 59.5716 229.982 59.9446 230.257 60.4282C230.536 60.9085 230.675 61.4736 230.675 62.1236C230.675 62.7768 230.534 63.3388 230.253 63.8095C229.971 64.277 229.563 64.6356 229.028 64.8854C228.496 65.1351 227.853 65.26 227.097 65.26H224.499V63.5885H226.761C227.158 63.5885 227.488 63.5341 227.75 63.4252C228.013 63.3164 228.208 63.1531 228.336 62.9353C228.468 62.7176 228.533 62.447 228.533 62.1236C228.533 61.797 228.468 61.5216 228.336 61.2975C228.208 61.0734 228.011 60.9037 227.745 60.7884C227.483 60.6699 227.151 60.6107 226.751 60.6107H225.349V68.747H223.269ZM228.581 64.2706L231.026 68.747H228.73L226.338 64.2706H228.581Z"/><path fill="#B4B4B4" d="M221.593 63.8289C221.593 64.9016 221.39 65.8141 220.983 66.5666C220.58 67.3191 220.029 67.8938 219.331 68.2909C218.636 68.6847 217.855 68.8817 216.987 68.8817C216.113 68.8817 215.329 68.6831 214.634 68.2861C213.939 67.889 213.39 67.3143 212.986 66.5618C212.583 65.8093 212.381 64.8984 212.381 63.8289C212.381 62.7562 212.583 61.8436 212.986 61.0912C213.39 60.3387 213.939 59.7655 214.634 59.3717C215.329 58.9746 216.113 58.7761 216.987 58.7761C217.855 58.7761 218.636 58.9746 219.331 59.3717C220.029 59.7655 220.58 60.3387 220.983 61.0912C221.39 61.8436 221.593 62.7562 221.593 63.8289ZM219.485 63.8289C219.485 63.1341 219.381 62.5481 219.173 62.071C218.968 61.5939 218.678 61.2321 218.303 60.9855C217.929 60.739 217.49 60.6157 216.987 60.6157C216.484 60.6157 216.046 60.739 215.671 60.9855C215.297 61.2321 215.005 61.5939 214.797 62.071C214.592 62.5481 214.49 63.1341 214.49 63.8289C214.49 64.5237 214.592 65.1097 214.797 65.5868C215.005 66.0639 215.297 66.4257 215.671 66.6723C216.046 66.9188 216.484 67.0421 216.987 67.0421C217.49 67.0421 217.929 66.9188 218.303 66.6723C218.678 66.4257 218.968 66.0639 219.173 65.5868C219.381 65.1097 219.485 64.5237 219.485 63.8289Z"/><path fill="#B4B4B4" d="M200.042 58.9104H202.607L205.316 65.5193H205.431L208.14 58.9104H210.705V68.747H208.688V62.3446H208.606L206.061 68.6989H204.687L202.141 62.3205H202.06V68.747H200.042V58.9104Z"/><defs><filter id="filter0_d_288_295" width="79.693" height="96.6" x="33.2" y="41.2" color-interpolation-filters="sRGB" filterUnits="userSpaceOnUse"><feFlood flood-opacity="0" result="BackgroundImageFix"/><feColorMatrix in="SourceAlpha" result="hardAlpha" type="matrix" values="0 0 0 0 0 0 0 0 0 0 0 0 0 0 0 0 0 0 127 0"/><feOffset dy="4"/><feGaussianBlur stdDeviation="4.4"/><feComposite in2="hardAlpha" operator="out"/><feColorMatrix type="matrix" values="0 0 0 0 0 0 0 0 0 0 0 0 0 0 0 0 0 0 0.25 0"/><feBlend in2="BackgroundImageFix" mode="normal" result="effect1_dropShadow_288_295"/><feBlend in="SourceGraphic" in2="effect1_dropShadow_288_295" mode="normal" result="shape"/></filter><filter id="filter1_d_288_295" width="79.693" height="96.6" x="179.293" y="41.2" color-interpolation-filters="sRGB" filterUnits="userSpaceOnUse"><feFlood flood-opacity="0" result="BackgroundImageFix"/><feColorMatrix in="SourceAlpha" result="hardAlpha" type="matrix" values="0 0 0 0 0 0 0 0 0 0 0 0 0 0 0 0 0 0 127 0"/><feOffset dy="4"/><feGaussianBlur stdDeviation="4.4"/><feComposite in2="hardAlpha" operator="out"/><feColorMatrix type="matrix" values="0 0 0 0 0 0 0 0 0 0 0 0 0 0 0 0 0 0 0.25 0"/><feBlend in2="BackgroundImageFix" mode="normal" result="effect1_dropShadow_288_295"/><feBlend in="SourceGraphic" in2="effect1_dropShadow_288_295" mode="normal" result="shape"/></filter><linearGradient id="paint0_linear_288_295" x1="73.047" x2="73.047" y1="97.642" y2="125" gradientUnits="userSpaceOnUse"><stop stop-color="#fff"/><stop offset="1" stop-color="#fff" stop-opacity="0"/></linearGradient><linearGradient id="paint1_linear_288_295" x1="219.14" x2="219.14" y1="97.642" y2="125" gradientUnits="userSpaceOnUse"><stop/><stop offset="1" stop-opacity="0"/></linearGradient></defs></svg>