<svg width="36" height="55" viewBox="0 0 36 55" fill="none" xmlns="http://www.w3.org/2000/svg">
    <path
        d="M35.6973 17.7339C35.0904 18.3332 34.4996 19.0585 33.9247 19.9101C33.3818 20.7616 32.9347 21.5501 32.5833 22.2755C32.264 22.4962 31.9127 22.717 31.5294 22.9378C31.1781 23.127 30.8587 23.3478 30.5713 23.6001C30.2838 23.8524 29.9964 24.1205 29.709 24.4043C29.4215 24.6882 29.1181 24.9405 28.7987 25.1612C28.6391 25.2874 28.5273 25.3662 28.4634 25.3978C28.4315 25.4608 28.3835 25.5082 28.3197 25.5397C28.2877 25.6028 28.2398 25.6658 28.176 25.7289C28.1121 25.792 28.0003 25.8708 27.8406 25.9655C27.8406 25.9655 27.7608 25.9812 27.6011 26.0128C27.4414 26.0758 27.2657 26.1232 27.0741 26.1547C26.9144 26.2178 26.7547 26.2651 26.595 26.2966C26.4354 26.3597 26.3395 26.3912 26.3076 26.3912C26.2757 26.4543 26.1639 26.5489 25.9723 26.6751C25.8126 26.8328 25.6209 26.9905 25.3974 27.1482C25.2058 27.3374 25.0141 27.4951 24.8225 27.6212C24.6309 27.7789 24.5031 27.8893 24.4393 27.9524C24.2476 27.8893 24.04 27.842 23.8165 27.8105C23.6248 27.7789 23.4332 27.7316 23.2416 27.6685C23.1777 27.7947 23.0979 27.9208 23.0021 28.047C22.9382 28.1732 22.8743 28.2993 22.8104 28.4255C22.6508 28.4255 22.4911 28.4412 22.3314 28.4728C22.1717 28.5043 22.012 28.5358 21.8523 28.5674L21.7086 29.1351L21.8044 29.1824L21.8523 29.5608L21.9481 29.4189C22.1078 30.2074 22.1717 31.0274 22.1397 31.8789C22.1397 32.7305 22.0759 33.5347 21.9481 34.2916C21.8842 34.7016 21.7884 35.0958 21.6607 35.4743C21.5649 35.8843 21.485 36.2943 21.4212 36.7043C21.3573 37.0828 21.2934 37.477 21.2295 37.887C21.1976 38.297 21.1497 38.707 21.0858 39.117C21.0858 39.1801 21.0379 39.3378 20.9421 39.5901C20.8782 39.8424 20.7984 40.1104 20.7026 40.3943C20.6067 40.6781 20.5269 40.9304 20.463 41.1512C20.3991 41.372 20.3672 41.4981 20.3672 41.5297C20.2075 41.8766 20.0319 42.2393 19.8402 42.6178C19.6806 42.9962 19.5209 43.3589 19.3612 43.7058C19.2015 44.0528 19.0578 44.4312 18.93 44.8412C18.8023 45.2828 18.6585 45.677 18.4989 46.0239C18.403 46.2447 18.2274 46.5443 17.9719 46.9227C17.7483 47.3327 17.4928 47.7427 17.2054 48.1527C16.9499 48.5627 16.6784 48.957 16.391 49.3354C16.1355 49.7139 15.9439 49.982 15.8161 50.1397C15.5606 50.4235 15.2572 50.6916 14.9059 50.9439C14.5546 51.2277 14.2352 51.4958 13.9478 51.7481C13.309 52.2843 12.6543 52.8047 11.9836 53.3093C11.3448 53.8139 10.6741 54.287 9.97152 54.7285L7.28876 54.5393L4.70182 53.3566C4.76569 53.1043 4.82957 52.8204 4.89344 52.5051C4.95732 52.2212 5.02119 51.9531 5.08507 51.7008C4.92538 51.3854 4.78166 50.9912 4.65391 50.5181C4.5581 50.0451 4.46229 49.572 4.36647 49.0989C4.27066 48.6258 4.17485 48.1527 4.07903 47.6797C4.01516 47.2381 3.95128 46.8439 3.88741 46.497C4.01516 46.1185 4.14291 45.7401 4.27066 45.3616C4.39841 44.9831 4.54213 44.5889 4.70182 44.1789C4.82957 43.8004 4.92538 43.4062 4.98926 42.9962C5.08507 42.6178 5.21282 42.2393 5.37251 41.8608C5.5322 41.5139 5.70785 41.1512 5.89948 40.7728C6.12304 40.4258 6.2987 40.0789 6.42645 39.732C6.42645 39.7004 6.44242 39.5585 6.47435 39.3062C6.53823 39.0854 6.6021 38.8174 6.66598 38.502C6.72986 38.1551 6.79373 37.7608 6.85761 37.3193C7.01729 36.9724 7.17698 36.6097 7.33667 36.2312C7.49636 35.8528 7.65605 35.4901 7.81573 35.1431C7.97542 34.7962 8.15108 34.4493 8.3427 34.1024C8.56627 33.7555 8.75789 33.4085 8.91758 33.0616C9.04533 32.7147 9.14114 32.3362 9.20502 31.9262C9.30083 31.5162 9.38068 31.1378 9.44455 30.7908C9.50843 30.4439 9.62021 30.097 9.7799 29.7501C9.97152 29.4032 10.1152 29.0562 10.2111 28.7093C10.0833 28.3624 9.95555 28.0155 9.8278 27.6685C9.70005 27.3216 9.5723 26.9747 9.44455 26.6278C9.47649 26.2493 9.49246 25.8393 9.49246 25.3978C9.49246 24.9878 9.5244 24.6093 9.58827 24.2624C9.65215 23.9155 9.74796 23.5528 9.87571 23.1743C10.0354 22.7959 10.1791 22.4332 10.3069 22.0862C10.6901 21.9285 11.0574 21.7551 11.4087 21.5659C11.792 21.3766 12.1752 21.2032 12.5585 21.0455C12.6862 20.7932 12.814 20.5566 12.9417 20.3359C13.1014 20.1151 13.2611 19.8943 13.4208 19.6735C13.1653 19.7997 12.8619 19.9259 12.5106 20.052C12.1912 20.1466 11.9197 20.2885 11.6962 20.4778C11.1213 20.9193 10.4506 21.4239 9.68408 21.9916C8.94952 22.5278 8.26286 22.922 7.62411 23.1743C7.27279 23.332 6.87357 23.4582 6.42645 23.5528C6.01126 23.6474 5.62801 23.742 5.27669 23.8366L2.83347 23.6001C2.64184 23.3478 2.38634 23.0009 2.06697 22.5593C1.74759 22.0862 1.52403 21.7235 1.39628 21.4712C1.26853 21.1874 1.15674 20.7616 1.06093 20.1939C0.93318 19.6262 0.821399 19.1689 0.725586 18.822C0.981087 18.4435 1.23659 18.0809 1.49209 17.7339C1.71565 17.387 1.97115 17.0401 2.25859 16.6932L3.26463 14.4224C3.26463 14.3593 3.36044 14.2489 3.55206 14.0912C3.71175 13.902 3.88741 13.7128 4.07903 13.5236C4.3026 13.3028 4.49422 13.0978 4.65391 12.9086C4.84554 12.7193 4.95732 12.5932 4.98926 12.5301L6.0432 10.2593C6.33064 10.007 6.66598 9.75471 7.04923 9.5024C7.43248 9.2501 7.75186 8.98202 8.00736 8.69817C8.26286 8.38279 8.50239 8.03587 8.72596 7.6574C8.94952 7.27894 9.20502 6.94779 9.49246 6.66394C9.49246 6.66394 9.60424 6.5851 9.8278 6.42741C10.0514 6.26971 10.2749 6.09625 10.4985 5.90702C10.754 5.71779 10.9935 5.54433 11.2171 5.38664C11.4407 5.19741 11.5524 5.10279 11.5524 5.10279C12.2551 4.66125 12.9896 4.29856 13.7561 4.01472C14.5226 3.69933 15.2891 3.39972 16.0556 3.11587C16.2153 3.05279 16.4229 2.97395 16.6784 2.87933C16.9339 2.75318 17.2054 2.62702 17.4928 2.50087C17.7803 2.37472 18.0358 2.24856 18.2593 2.12241C18.5148 1.99626 18.7065 1.88587 18.8342 1.79126C18.9939 1.72818 19.2015 1.6651 19.457 1.60203C19.7444 1.50741 20.0159 1.4128 20.2714 1.31818C20.5588 1.22356 20.8143 1.12895 21.0379 1.03433C21.2934 0.939719 21.485 0.845104 21.6128 0.750488L24.3913 1.55472L25.7327 4.5351C25.2217 4.62972 24.7267 4.72433 24.2476 4.81895C23.7686 4.88202 23.2735 4.96087 22.7625 5.05548C22.5709 5.49702 22.3952 5.89125 22.2356 6.23818C22.1078 6.5851 21.9641 6.93202 21.8044 7.27894C21.6767 7.59433 21.517 7.92548 21.3253 8.2724C21.1657 8.61933 20.974 9.02933 20.7505 9.5024C20.5908 9.84933 20.4471 10.2436 20.3193 10.6851C20.1916 11.1266 20.0159 11.5051 19.7923 11.8205C19.6965 12.2305 19.6007 12.6405 19.5049 13.0505C19.4091 13.4605 19.2973 13.8547 19.1696 14.2332C19.1376 14.2962 19.0258 14.5486 18.8342 14.9901C18.6745 15.4316 18.4829 15.9205 18.2593 16.4566C18.0677 16.9612 17.8601 17.4501 17.6365 17.9232C17.4449 18.3647 17.3012 18.6485 17.2054 18.7747C17.1415 19.1216 17.0617 19.4685 16.9659 19.8155C16.87 20.1624 16.7902 20.5093 16.7263 20.8562C17.0138 21.0139 17.2852 21.1874 17.5407 21.3766C17.8282 21.5659 18.0996 21.7393 18.3551 21.897C18.7065 22.4962 19.0418 23.0955 19.3612 23.6947C19.7125 24.2939 19.984 24.9089 20.1756 25.5397C20.8463 25.382 21.5329 25.2085 22.2356 25.0193C22.9701 24.8616 23.6887 24.7512 24.3913 24.6882C24.9343 24.2782 25.3335 23.9943 25.589 23.8366C25.8764 23.7105 26.2916 23.5212 26.8346 23.2689C26.8665 23.2374 26.9943 23.1585 27.2178 23.0324C27.4414 22.9062 27.6809 22.7643 27.9364 22.6066C28.1919 22.4174 28.4155 22.2597 28.6071 22.1335C28.8307 22.0074 28.9584 21.9285 28.9904 21.897C29.3097 21.6447 29.6131 21.3766 29.9006 21.0928C30.22 20.8089 30.5393 20.5409 30.8587 20.2885C31.5613 19.7839 32.3119 19.2793 33.1103 18.7747C33.9407 18.2701 34.7232 17.797 35.4577 17.3555L35.6973 17.7339ZM18.5468 5.67048C18.5468 5.41818 18.5308 5.1501 18.4989 4.86625C18.4989 4.58241 18.4829 4.29856 18.451 4.01472C18.0038 4.45625 17.5407 4.88202 17.0617 5.29202C16.6145 5.67048 16.1674 6.08048 15.7203 6.52202H15.6724C14.5226 7.15279 13.4847 7.76779 12.5585 8.36702C11.6642 8.96625 10.8179 9.80202 10.0194 10.8743C9.79587 11.1582 9.5723 11.4578 9.34874 11.7732C9.15711 12.0886 8.93355 12.3882 8.67805 12.672C8.45449 12.9243 8.18302 13.1766 7.86364 13.4289C7.5762 13.6497 7.33667 13.8862 7.14504 14.1386C6.95342 14.4224 6.76179 14.7693 6.57017 15.1793C6.37854 15.5893 6.20288 15.952 6.0432 16.2674C5.69188 16.9297 5.43638 17.4028 5.27669 17.6866C5.11701 17.9389 5.00522 18.1597 4.94135 18.3489C4.87747 18.5382 4.8136 18.7589 4.74972 19.0112C4.71779 19.2635 4.63794 19.6893 4.51019 20.2885C5.05313 20.2255 5.56413 20.1624 6.0432 20.0993C6.5542 20.0047 7.08117 19.9416 7.62411 19.9101C7.94348 19.5947 8.27883 19.3109 8.63014 19.0585C8.98146 18.7747 9.3168 18.4593 9.63618 18.1124C10.2749 17.5132 10.9137 16.8982 11.5524 16.2674C12.2231 15.6366 12.9417 15.1005 13.7082 14.6589C13.7721 14.4382 13.9637 14.107 14.2831 13.6655C14.6025 13.2239 14.9378 12.7824 15.2891 12.3409C15.6724 11.8993 16.0077 11.4893 16.2952 11.1109C16.6145 10.7324 16.7902 10.5116 16.8221 10.4486C17.1096 9.66009 17.381 8.85586 17.6365 8.03587C17.892 7.21587 18.1955 6.42741 18.5468 5.67048ZM18.0677 26.2493C18.0038 26.0285 17.94 25.8078 17.8761 25.587C17.8441 25.3978 17.7962 25.1928 17.7324 24.972C17.5727 24.9405 17.413 24.8932 17.2533 24.8301C17.1255 24.7985 16.9818 24.7828 16.8221 24.7828C16.5666 24.7512 16.3111 24.767 16.0556 24.8301C15.8321 24.9247 15.5925 24.972 15.337 24.972C15.2732 25.2243 15.1614 25.4924 15.0017 25.7762C14.8739 26.0601 14.7781 26.3439 14.7143 26.6278C15.0017 26.5962 15.2732 26.5805 15.5287 26.5805C15.8161 26.5805 16.0876 26.5647 16.3431 26.5332C16.6624 26.4701 16.9499 26.407 17.2054 26.3439C17.4928 26.3124 17.7803 26.2808 18.0677 26.2493ZM19.3612 32.1628C19.2973 31.7528 19.2175 31.3428 19.1216 30.9328C19.0578 30.5543 18.9939 30.1443 18.93 29.7028C18.0677 29.8289 17.1735 29.9393 16.2473 30.0339C15.353 30.1601 14.4588 30.3178 13.5645 30.507C13.2451 31.1693 12.9258 31.8316 12.6064 32.4939C12.287 33.1878 11.9996 33.8974 11.7441 34.6228C11.6163 34.9697 11.5045 35.3481 11.4087 35.7581C11.3448 36.1681 11.2331 36.5466 11.0734 36.8935C10.9137 37.2405 10.7061 37.5716 10.4506 37.887C10.227 38.2339 10.0194 38.5808 9.8278 38.9278C9.70005 39.1485 9.55633 39.4954 9.39665 39.9685C9.23696 40.4731 9.12518 40.8516 9.0613 41.1039C8.83774 41.8293 8.59821 42.5547 8.3427 43.2801C8.11914 44.0054 7.92752 44.7466 7.76783 45.5035C7.70395 45.8504 7.64008 46.2131 7.5762 46.5916C7.51233 47.0016 7.44845 47.3958 7.38458 47.7743C7.3207 48.1212 7.22489 48.4839 7.09714 48.8624C7.00132 49.2724 6.92148 49.6508 6.85761 49.9977C7.08117 50.2501 7.28876 50.4866 7.48039 50.7074C7.70395 50.9597 7.92752 51.212 8.15108 51.4643C8.88564 51.2435 9.5244 51.007 10.0673 50.7547C10.4186 50.5654 10.738 50.3604 11.0255 50.1397C11.3448 49.9504 11.6802 49.777 12.0315 49.6193C12.3828 48.8939 12.7661 48.2474 13.1813 47.6797C13.2451 47.6481 13.3888 47.5535 13.6124 47.3958C13.836 47.2381 14.0595 47.0804 14.2831 46.9227C14.5067 46.7651 14.7143 46.6074 14.9059 46.4497C15.0975 46.3235 15.2093 46.2447 15.2412 46.2131C15.4967 45.9293 15.7043 45.5981 15.864 45.2197C16.0556 44.8728 16.2473 44.5258 16.4389 44.1789L17.6845 42.1447C17.8761 41.7978 18.0517 41.4351 18.2114 41.0566C18.3711 40.7097 18.5308 40.347 18.6905 39.9685C18.7544 39.1801 18.8502 38.3285 18.9779 37.4139C19.1057 36.4993 19.3133 35.6793 19.6007 34.9539L19.3612 32.1628Z"
        fill="#00DD82" />
</svg>
    